<svg width="24" height="24" viewBox="0 0 24 24" fill="none" xmlns="http://www.w3.org/2000/svg">
<path d="M16 14V12H8V14H16Z" fill="black"/>
<path d="M16 18V16H8V18H16Z" fill="black"/>
<path d="M10 8H8V10H10V8Z" fill="black"/>
<path fill-rule="evenodd" clip-rule="evenodd" d="M19.707 8.293C19.7892 8.37825 19.8556 8.47747 19.903 8.586C19.9154 8.61255 19.9239 8.63989 19.9326 8.668C19.9337 8.67166 19.9349 8.67532 19.936 8.679C19.9649 8.76255 19.9821 8.84972 19.987 8.938C19.9879 8.94813 19.9907 8.95762 19.9935 8.96697C19.9968 8.97792 20 8.98867 20 9V20C20 21.103 19.103 22 18 22H6C4.897 22 4 21.103 4 20V4C4 2.897 4.897 2 6 2H13C13.0115 2 13.0224 2.00329 13.0333 2.0066C13.0424 2.00934 13.0515 2.01209 13.061 2.013C13.1492 2.01837 13.2363 2.03553 13.32 2.064C13.33 2.06743 13.3399 2.07056 13.3498 2.07368C13.3717 2.08057 13.3933 2.08736 13.414 2.097C13.5225 2.14441 13.6217 2.21078 13.707 2.293L19.707 8.293ZM14 8H16.586L14 5.414V8ZM6 4V20H18.002L18 10H13C12.7348 10 12.4804 9.89464 12.2929 9.70711C12.1054 9.51957 12 9.26522 12 9V4H6Z" fill="black"/>
</svg>
